<?xml version="1.0" encoding="UTF-8" standalone="no"?>
<svg
   xmlns:dc="http://purl.org/dc/elements/1.1/"
   xmlns:cc="http://creativecommons.org/ns#"
   xmlns:rdf="http://www.w3.org/1999/02/22-rdf-syntax-ns#"
   xmlns:svg="http://www.w3.org/2000/svg"
   xmlns="http://www.w3.org/2000/svg"
   viewBox="0 0 970.84668 809.95331"
   height="125"
   width="125"
   xml:space="preserve"
   id="svg2"
   version="1.1"><metadata
     id="metadata8"><rdf:RDF><cc:Work
         rdf:about=""><dc:format>image/svg+xml</dc:format><dc:type
           rdf:resource="http://purl.org/dc/dcmitype/StillImage" /></cc:Work></rdf:RDF></metadata><defs
     id="defs6"><radialGradient
       id="radialGradient30"
       spreadMethod="pad"
       gradientTransform="matrix(176.08531,0,0,-176.08531,364.0676,439.14594)"
       gradientUnits="userSpaceOnUse"
       r="1"
       cy="0"
       cx="0"
       fy="0"
       fx="0"><stop
         id="stop24"
         offset="0"
         style="stop-opacity:1;stop-color:#ffffff" /><stop
         id="stop26"
         offset="1"
         style="stop-opacity:1;stop-color:#5274bd" /><stop
         id="stop28"
         offset="1"
         style="stop-opacity:1;stop-color:#5274bd" /></radialGradient><clipPath
       id="clipPath40"
       clipPathUnits="userSpaceOnUse"><path
         id="path38"
         d="M 0,607.465 H 728.135 V 0 H 0 Z" /></clipPath><clipPath
       id="clipPath88"
       clipPathUnits="userSpaceOnUse"><path
         id="path86"
         d="m 229.282,333.372 c 0,-34.12 27.659,-61.779 61.778,-61.779 v 0 c 34.119,0 61.779,27.659 61.779,61.779 v 0 c 0,34.119 -27.66,61.778 -61.779,61.778 v 0 c -34.119,0 -61.778,-27.659 -61.778,-61.778" /></clipPath><clipPath
       id="clipPath100"
       clipPathUnits="userSpaceOnUse"><path
         id="path98"
         d="m 375.91,333.372 c 0,-34.12 27.659,-61.779 61.778,-61.779 v 0 c 34.119,0 61.779,27.659 61.779,61.779 v 0 c 0,34.119 -27.66,61.778 -61.779,61.778 v 0 c -34.119,0 -61.778,-27.659 -61.778,-61.778" /></clipPath><clipPath
       id="clipPath112"
       clipPathUnits="userSpaceOnUse"><path
         id="path110"
         d="M 0,607.465 H 728.135 V 0 H 0 Z" /></clipPath></defs><g
     transform="matrix(1.3333333,0,0,-1.3333333,0,809.95333)"
     id="g10"><g
       id="g12"><g
         id="g14"><g
           id="g20"><g
             id="g22"><path
               id="path32"
               style="fill:url(#radialGradient30);stroke:none"
               d="m 141.482,439.146 c 0,-61.667 99.655,-111.659 222.586,-111.659 v 0 c 122.931,0 222.586,49.992 222.586,111.659 v 0 c 0,61.667 -99.655,111.658 -222.586,111.658 v 0 c -122.931,0 -222.586,-49.991 -222.586,-111.658" /></g></g></g></g><g
       id="g34"><g
         clip-path="url(#clipPath40)"
         id="g36"><path
           id="path42"
           style="fill:#ed1c24;fill-opacity:1;fill-rule:nonzero;stroke:none"
           d="M 353.337,583.551 H 210.772 v 23.914 h 142.565 z" /><path
           id="path44"
           style="fill:#ed1c24;fill-opacity:1;fill-rule:nonzero;stroke:none"
           d="M 353.337,552.278 H 210.772 v 23.914 h 142.565 z" /><path
           id="path46"
           style="fill:#ed1c24;fill-opacity:1;fill-rule:nonzero;stroke:none"
           d="m 352.877,521.006 h -71.282 v 23.914 h 71.282 z" /><path
           id="path48"
           style="fill:#ed1c24;fill-opacity:1;fill-rule:nonzero;stroke:none"
           d="m 447.231,583.551 h -71.283 v 23.914 h 71.283 z" /><path
           id="path50"
           style="fill:#ed1c24;fill-opacity:1;fill-rule:nonzero;stroke:none"
           d="m 447.231,552.278 h -71.283 v 23.914 h 71.283 z" /><path
           id="path52"
           style="fill:#ed1c24;fill-opacity:1;fill-rule:nonzero;stroke:none"
           d="m 447.231,521.006 h -71.283 v 23.914 h 71.283 z" /><path
           id="path54"
           style="fill:#ed1c24;fill-opacity:1;fill-rule:nonzero;stroke:none"
           d="m 447.231,489.734 h -71.283 v 23.915 h 71.283 z" /><path
           id="path56"
           style="fill:#ed1c24;fill-opacity:1;fill-rule:nonzero;stroke:none"
           d="m 447.231,458.461 h -71.283 v 23.915 h 71.283 z" /><path
           id="path58"
           style="fill:#ed1c24;fill-opacity:1;fill-rule:nonzero;stroke:none"
           d="m 447.231,427.189 h -71.283 v 23.915 h 71.283 z" /><path
           id="path60"
           style="fill:#ed1c24;fill-opacity:1;fill-rule:nonzero;stroke:none"
           d="m 447.231,395.917 h -71.283 v 23.914 h 71.283 z" /><path
           id="path62"
           style="fill:#ed1c24;fill-opacity:1;fill-rule:nonzero;stroke:none"
           d="m 447.231,364.644 h -71.283 v 23.914 h 71.283 z" /><path
           id="path64"
           style="fill:#ed1c24;fill-opacity:1;fill-rule:nonzero;stroke:none"
           d="m 447.231,333.372 h -71.283 v 23.914 h 71.283 z" /><path
           id="path66"
           style="fill:#ed1c24;fill-opacity:1;fill-rule:nonzero;stroke:none"
           d="m 352.877,489.734 h -71.282 v 23.915 h 71.282 z" /><path
           id="path68"
           style="fill:#ed1c24;fill-opacity:1;fill-rule:nonzero;stroke:none"
           d="m 352.877,458.461 h -71.282 v 23.915 h 71.282 z" /><path
           id="path70"
           style="fill:#ed1c24;fill-opacity:1;fill-rule:nonzero;stroke:none"
           d="m 352.877,427.189 h -71.282 v 23.915 h 71.282 z" /><path
           id="path72"
           style="fill:#ed1c24;fill-opacity:1;fill-rule:nonzero;stroke:none"
           d="m 352.877,395.917 h -71.282 v 23.914 h 71.282 z" /><path
           id="path74"
           style="fill:#ed1c24;fill-opacity:1;fill-rule:nonzero;stroke:none"
           d="m 352.877,364.644 h -71.282 v 23.914 h 71.282 z" /><path
           id="path76"
           style="fill:#ed1c24;fill-opacity:1;fill-rule:nonzero;stroke:none"
           d="m 352.877,333.372 h -71.282 v 23.914 h 71.282 z" /><path
           id="path78"
           style="fill:#ed1c24;fill-opacity:1;fill-rule:nonzero;stroke:none"
           d="M 447.192,333.372 H 375.91 v 23.914 h 71.282 z" /><path
           id="path80"
           style="fill:#ed1c24;fill-opacity:1;fill-rule:nonzero;stroke:none"
           d="m 352.839,333.372 h -71.283 v 23.914 h 71.283 z" /></g></g><g
       id="g82"><g
         clip-path="url(#clipPath88)"
         id="g84"><path
           id="path90"
           style="fill:#ed1c24;fill-opacity:1;fill-rule:nonzero;stroke:none"
           d="m 352.839,270.827 h -61.778 v 23.914 h 61.778 z" /><path
           id="path92"
           style="fill:#ed1c24;fill-opacity:1;fill-rule:nonzero;stroke:none"
           d="m 352.839,302.099 h -71.283 v 23.914 h 71.283 z" /></g></g><g
       id="g94"><g
         clip-path="url(#clipPath100)"
         id="g96"><path
           id="path102"
           style="fill:#ed1c24;fill-opacity:1;fill-rule:nonzero;stroke:none"
           d="M 447.192,302.099 H 375.91 v 23.914 h 71.282 z" /><path
           id="path104"
           style="fill:#ed1c24;fill-opacity:1;fill-rule:nonzero;stroke:none"
           d="M 437.688,270.827 H 375.91 v 23.914 h 61.778 z" /></g></g><g
       id="g106"><g
         clip-path="url(#clipPath112)"
         id="g108"><path
           id="path114"
           style="fill:#ed1c24;fill-opacity:1;fill-rule:nonzero;stroke:none"
           d="M 281.556,326.013 H 131.019 v -23.914 h 150.537 z" /><path
           id="path116"
           style="fill:#ed1c24;fill-opacity:1;fill-rule:nonzero;stroke:none"
           d="M 597.729,326.013 H 447.192 v -23.914 h 150.537 z" /><path
           id="path118"
           style="fill:#ed1c24;fill-opacity:1;fill-rule:nonzero;stroke:none"
           d="M 291.06,294.741 H 131.019 V 271.594 H 291.06 Z" /><path
           id="path120"
           style="fill:#ed1c24;fill-opacity:1;fill-rule:nonzero;stroke:none"
           d="M 437.688,271.593 H 597.729 V 294.74 H 437.688 Z" /><path
           id="path122"
           style="fill:#ed1c24;fill-opacity:1;fill-rule:nonzero;stroke:none"
           d="m 447.192,333.372 h 150.537 v 11.957 H 447.192 Z" /><path
           id="path124"
           style="fill:#ed1c24;fill-opacity:1;fill-rule:nonzero;stroke:none"
           d="m 131.019,333.372 h 150.537 v 11.957 H 131.019 Z" /><text
           id="text128"
           style="font-variant:normal;font-weight:900;font-stretch:normal;font-size:43.22949982px;font-family:'Arial Black';-inkscape-font-specification:Arial-Black;writing-mode:lr-tb;fill:#231f20;fill-opacity:1;fill-rule:nonzero;stroke:none"
           transform="matrix(1,0,0,-1,0,27.9141)"><tspan
             id="tspan126"
             y="0"
             x="0 28.622252 57.456329 86.290405 115.12448 143.95856 158.35399 187.18806 216.02214 230.41756 259.25165 285.66486 300.06027 314.45572 347.00751 375.84158 404.67566 433.50974 459.92297 474.31839 503.15247 517.54791 548.75958 577.59369 599.29059 625.7038 640.09918 668.93329 697.76733">Tecnologias, Redes e Serviços</tspan></text>
<path
           id="path130"
           style="fill:#5274bd;fill-opacity:1;fill-rule:nonzero;stroke:none"
           d="m 684.594,155.261 h -38.138 v 10.416 h 38.138 z" /><path
           id="path132"
           style="fill:#5274bd;fill-opacity:1;fill-rule:nonzero;stroke:none"
           d="m 656.871,133.384 h -10.414 v 21.877 h 10.414 z" /><g
           transform="translate(249.633,107.6071)"
           id="g134"><path
             id="path136"
             style="fill:#5274bd;fill-opacity:1;fill-rule:nonzero;stroke:none"
             d="M 0,0 V 58.07 H 41.561 V 37.381 H 31.194 V 47.654 H 10.366 V 30.961 l 3.472,-5.184 V 10.368 H 31.194 V 20.783 H 41.561 L 41.561,0 Z" /></g><g
           transform="translate(190.6681,107.6071)"
           id="g138"><path
             id="path140"
             style="fill:#5274bd;fill-opacity:1;fill-rule:nonzero;stroke:none"
             d="M 0,0 V 13.84 L -6.943,30.961 V 67.629 H 14.17 V 81.516 H -41.894 V 67.629 h 21.113 V 0 Z" /></g><g
           transform="translate(350.111,165.6769)"
           id="g142"><path
             id="path144"
             style="fill:#5274bd;fill-opacity:1;fill-rule:nonzero;stroke:none"
             d="M 0,0 H 41.608 V -58.07 H 27.723 v 47.654 H 10.414 v -16.693 l 3.472,-5.184 V -58.07 H 0 Z" /></g><g
           transform="translate(303.2946,165.6769)"
           id="g146"><path
             id="path148"
             style="fill:#5274bd;fill-opacity:1;fill-rule:nonzero;stroke:none"
             d="M 0,0 H 41.608 V -58.07 H 27.724 v 47.654 h -17.31 v -16.693 l 3.472,-5.184 V -58.07 H 0 Z" /></g><g
           transform="translate(464.4743,107.6071)"
           id="g150"><path
             id="path152"
             style="fill:#5274bd;fill-opacity:1;fill-rule:nonzero;stroke:none"
             d="m 0,0 v 25.777 l -3.424,5.184 V 81.516 H -13.838 V 0 Z" /></g><g
           transform="translate(64.3214,189.1232)"
           id="g154"><path
             id="path156"
             style="fill:none;stroke:#040606;stroke-width:0.75;stroke-linecap:square;stroke-linejoin:miter;stroke-miterlimit:10;stroke-dasharray:none;stroke-opacity:1"
             d="M 0,0 V -13.887" /></g><g
           transform="translate(92.0446,107.6071)"
           id="g158"><path
             id="path160"
             style="fill:#5274bd;fill-opacity:1;fill-rule:nonzero;stroke:none"
             d="M 0,0 V 81.516 H -27.723 V 67.629 h 13.885 V 39.854 L -20.781,27.727 V 6.896 h -13.837 v 20.831 h -13.885 l 0,-27.727 z" /></g><g
           transform="translate(120.5285,189.1232)"
           id="g162"><path
             id="path164"
             style="fill:#5274bd;fill-opacity:1;fill-rule:nonzero;stroke:none"
             d="m 0,0 h -13.838 v -81.516 h 48.504 v 27.727 H 20.828 V -74.62 H 6.942 v 20.831 L 0,-41.662 Z" /></g><path
           id="path166"
           style="fill:#5274bd;fill-opacity:1;fill-rule:nonzero;stroke:none"
           d="M 684.594,144.846 H 674.18 v 10.416 h 10.414 z" /><path
           id="path168"
           style="fill:#5274bd;fill-opacity:1;fill-rule:nonzero;stroke:none"
           d="m 656.871,107.607 h -10.414 v 20.783 h 10.414 z" /><path
           id="path170"
           style="fill:#5274bd;fill-opacity:1;fill-rule:nonzero;stroke:none"
           d="M 684.594,107.607 H 674.18 v 25.777 h 10.414 z" /><path
           id="path172"
           style="fill:#5274bd;fill-opacity:1;fill-rule:nonzero;stroke:none"
           d="M 240.931,155.261 H 199.37 v 10.416 h 41.561 z" /><path
           id="path174"
           style="fill:#5274bd;fill-opacity:1;fill-rule:nonzero;stroke:none"
           d="m 240.931,143.752 h -13.838 v 11.509 h 13.838 z" /><path
           id="path176"
           style="fill:#5274bd;fill-opacity:1;fill-rule:nonzero;stroke:none"
           d="M 209.784,143.752 H 199.37 v 11.509 h 10.414 z" /><path
           id="path178"
           style="fill:#5274bd;fill-opacity:1;fill-rule:nonzero;stroke:none"
           d="M 240.931,138.981 H 199.37 v 4.771 h 41.561 z" /><path
           id="path180"
           style="fill:#5274bd;fill-opacity:1;fill-rule:nonzero;stroke:none"
           d="m 637.779,155.261 h -41.561 v 10.416 h 41.561 z" /><path
           id="path182"
           style="fill:#5274bd;fill-opacity:1;fill-rule:nonzero;stroke:none"
           d="m 637.779,143.752 h -13.838 v 11.509 h 13.838 z" /><path
           id="path184"
           style="fill:#5274bd;fill-opacity:1;fill-rule:nonzero;stroke:none"
           d="m 606.633,143.752 h -10.414 v 11.509 h 10.414 z" /><path
           id="path186"
           style="fill:#5274bd;fill-opacity:1;fill-rule:nonzero;stroke:none"
           d="m 637.779,138.981 h -41.561 v 4.771 h 41.561 z" /><g
           transform="translate(551.1628,107.6071)"
           id="g188"><path
             id="path190"
             style="fill:#5274bd;fill-opacity:1;fill-rule:nonzero;stroke:none"
             d="m 0,0 h 13.837 v -24.303 h -41.561 v 10.416 H 0 Z" /></g><path
           id="path192"
           style="fill:#5274bd;fill-opacity:1;fill-rule:nonzero;stroke:none"
           d="m 584.069,174.333 h -10.414 v 10.415 h 10.414 z" /><path
           id="path194"
           style="fill:#5274bd;fill-opacity:1;fill-rule:nonzero;stroke:none"
           d="M 684.594,107.607 H 656.87 v 10.368 h 27.724 z" /><path
           id="path196"
           style="fill:#5274bd;fill-opacity:1;fill-rule:nonzero;stroke:none"
           d="m 674.18,143.752 h -17.31 v -10.368 h 17.31 z" /><g
           transform="translate(674.1804,143.7521)"
           id="g198"><path
             id="path200"
             style="fill:#5274bd;fill-opacity:1;fill-rule:nonzero;stroke:none"
             d="M 0,0 V -10.368 H 10.414 V -7.8 Z" /></g><path
           id="path202"
           style="fill:#5274bd;fill-opacity:1;fill-rule:nonzero;stroke:none"
           d="m 313.66,107.607 h -13.738 v 81.516 h 13.738 z" /><g
           transform="translate(335.6549,129.8419)"
           id="g204"><path
             id="path206"
             style="fill:#5274bd;fill-opacity:1;fill-rule:nonzero;stroke:none"
             d="M 0,0 H 5.802 V 4.874 L 0,10.058 Z" /></g><g
           transform="translate(573.655,107.6071)"
           id="g208"><path
             id="path210"
             style="fill:#5274bd;fill-opacity:1;fill-rule:nonzero;stroke:none"
             d="m 0,0 h 13.838 v 25.777 l -3.424,5.184 V 58.07 L 0,58.07 Z" /></g><path
           id="path212"
           style="fill:#5274bd;fill-opacity:1;fill-rule:nonzero;stroke:none"
           d="m 235.13,133.384 h -35.759 v 5.597 h 35.759 z" /><path
           id="path214"
           style="fill:#5274bd;fill-opacity:1;fill-rule:nonzero;stroke:none"
           d="m 240.931,107.607 h -13.838 v 20.783 h 13.838 z" /><path
           id="path216"
           style="fill:#5274bd;fill-opacity:1;fill-rule:nonzero;stroke:none"
           d="m 213.208,117.975 h -13.837 v 15.409 h 13.837 z" /><path
           id="path218"
           style="fill:#5274bd;fill-opacity:1;fill-rule:nonzero;stroke:none"
           d="M 227.093,107.607 H 199.37 v 10.368 h 27.723 z" /><g
           transform="translate(235.1295,133.3839)"
           id="g220"><path
             id="path222"
             style="fill:#5274bd;fill-opacity:1;fill-rule:nonzero;stroke:none"
             d="M 0,0 V 5.597 H 5.801" /></g><path
           id="path224"
           style="fill:#5274bd;fill-opacity:1;fill-rule:nonzero;stroke:none"
           d="m 631.977,133.384 h -35.759 v 5.597 h 35.759 z" /><path
           id="path226"
           style="fill:#5274bd;fill-opacity:1;fill-rule:nonzero;stroke:none"
           d="m 637.779,107.607 h -13.838 v 20.783 h 13.838 z" /><path
           id="path228"
           style="fill:#5274bd;fill-opacity:1;fill-rule:nonzero;stroke:none"
           d="m 610.056,117.975 h -13.838 v 15.409 h 13.838 z" /><path
           id="path230"
           style="fill:#5274bd;fill-opacity:1;fill-rule:nonzero;stroke:none"
           d="m 623.941,107.607 h -27.723 v 10.368 h 27.723 z" /><g
           transform="translate(631.9772,133.3839)"
           id="g232"><path
             id="path234"
             style="fill:#5274bd;fill-opacity:1;fill-rule:nonzero;stroke:none"
             d="M 0,0 V 5.597 H 5.802" /></g><g
           transform="translate(410.7878,138.568)"
           id="g236"><path
             id="path238"
             style="fill:#5274bd;fill-opacity:1;fill-rule:nonzero;stroke:none"
             d="m 0,0 v 16.693 h 17.309 l 13.885,10.416 h -41.608 v -58.07 H 0 3.472 v 25.777 z" /></g><g
           transform="translate(414.2594,117.9748)"
           id="g240"><path
             id="path242"
             style="fill:#5274bd;fill-opacity:1;fill-rule:nonzero;stroke:none"
             d="m 0,0 h 13.837 v 37.287 l 13.886,10.415 v -58.07 l -27.723,0 z" /></g><g
           transform="translate(483.567,138.568)"
           id="g244"><path
             id="path246"
             style="fill:#5274bd;fill-opacity:1;fill-rule:nonzero;stroke:none"
             d="m 0,0 v 16.693 h 17.309 l 13.885,10.416 h -41.608 v -58.07 H 0 3.471 v 25.777 z" /></g><g
           transform="translate(487.0378,117.9748)"
           id="g248"><path
             id="path250"
             style="fill:#5274bd;fill-opacity:1;fill-rule:nonzero;stroke:none"
             d="m 0,0 h 13.838 v 37.287 l 13.886,10.415 v -58.07 l -27.724,0 z" /></g><g
           transform="translate(533.8298,138.568)"
           id="g252"><path
             id="path254"
             style="fill:#5274bd;fill-opacity:1;fill-rule:nonzero;stroke:none"
             d="m 0,0 v 16.693 h 17.309 l 13.885,10.416 h -41.608 v -58.07 H 0 3.471 v 25.777 z" /></g><g
           transform="translate(537.277,117.9748)"
           id="g256"><path
             id="path258"
             style="fill:#5274bd;fill-opacity:1;fill-rule:nonzero;stroke:none"
             d="m 0,0 h 13.838 v 37.287 l 13.885,10.415 v -58.07 l -27.723,0 z" /></g><path
           id="path260"
           style="fill:#5274bd;fill-opacity:1;fill-rule:nonzero;stroke:none"
           d="m 441.982,164.726 h -13.886 v -9.464 h 13.886 z" /><path
           id="path262"
           style="fill:#5274bd;fill-opacity:1;fill-rule:nonzero;stroke:none"
           d="m 400.374,107.607 h 27.723 v 10.368 h -27.723 z" /><path
           id="path264"
           style="fill:#5274bd;fill-opacity:1;fill-rule:nonzero;stroke:none"
           d="m 514.761,165.236 h -13.886 v -9.975 h 13.886 z" /><path
           id="path266"
           style="fill:#5274bd;fill-opacity:1;fill-rule:nonzero;stroke:none"
           d="m 473.153,107.607 h 27.723 v 10.368 h -27.723 z" /><path
           id="path268"
           style="fill:#5274bd;fill-opacity:1;fill-rule:nonzero;stroke:none"
           d="M 565,165.677 H 551.139 V 155.261 H 565 Z" /><path
           id="path270"
           style="fill:#5274bd;fill-opacity:1;fill-rule:nonzero;stroke:none"
           d="m 523.416,107.607 h 27.723 v 10.368 h -27.723 z" /><path
           id="path272"
           style="fill:#5274bd;fill-opacity:1;fill-rule:nonzero;stroke:none"
           d="m 565,93.72 h -13.837 v 24.255 H 565 Z" /><path
           id="path274"
           style="fill:#5274bd;fill-opacity:1;fill-rule:nonzero;stroke:none"
           d="m 674.18,129.768 h 10.414 v 6.184 H 674.18 Z" /></g></g></g></svg>